<svg id="Слой_1" data-name="Слой 1" xmlns="http://www.w3.org/2000/svg" viewBox="0 0 457.82 443.26"><defs><style>.cls-1,.cls-8{fill:#e83e64;}.cls-2,.cls-3{fill:#fdfdfd;stroke:#262625;}.cls-2,.cls-3,.cls-8{stroke-miterlimit:10;}.cls-2{stroke-width:7px;}.cls-4{fill:#282828;}.cls-5{fill:#50b47e;}.cls-6{fill:#5c5c5c;}.cls-7{fill:#929292;}.cls-8{stroke:#919191;stroke-width:8px;}</style></defs><circle class="cls-1" cx="236.19" cy="221.63" r="221.63"/><rect class="cls-2" x="118.49" y="70.22" width="235.39" height="302.81" rx="23.03"/><circle class="cls-3" cx="160.88" cy="136.94" r="17.93"/><circle class="cls-3" cx="160.88" cy="208.94" r="17.93"/><circle class="cls-3" cx="160.88" cy="280.94" r="17.93"/><rect class="cls-4" x="200.18" y="119" width="113.93" height="6.13"/><rect class="cls-4" x="199.65" y="191.79" width="113.93" height="6.13"/><rect class="cls-4" x="199.65" y="262.24" width="113.93" height="6.13"/><rect class="cls-4" x="200.18" y="136.94" width="51.16" height="6.13"/><rect class="cls-4" x="261.1" y="136.94" width="44.84" height="6.13"/><rect class="cls-4" x="199.65" y="206.24" width="70.68" height="6.13"/><rect class="cls-4" x="199.65" y="276.98" width="35.34" height="6.13"/><rect class="cls-4" x="238.48" y="277.03" width="24.79" height="6.13"/><text x="-19.81" y="-34.37"/><text x="-19.81" y="-34.37"/><path class="cls-5" d="M192.64,164.17l-2.23-2.24a1.59,1.59,0,0,0-2.24,0l-10.78,10.8-4.84-4.85a1.52,1.52,0,0,0-1.11-.46,1.56,1.56,0,0,0-1.12.46l-2.24,2.24a1.59,1.59,0,0,0,0,2.24l5.95,5.95,2.24,2.23a1.52,1.52,0,0,0,1.12.46,1.48,1.48,0,0,0,1.11-.46l2.24-2.23,11.9-11.91a1.48,1.48,0,0,0,.46-1.11,1.52,1.52,0,0,0-.46-1.12" transform="translate(-19.81 -34.37)"/><path class="cls-5" d="M192.18,236.21,190,234a1.59,1.59,0,0,0-2.24,0l-10.78,10.8-4.84-4.85a1.58,1.58,0,0,0-2.23,0l-2.24,2.24a1.58,1.58,0,0,0,0,2.23l5.95,6,2.24,2.24a1.58,1.58,0,0,0,2.23,0l2.24-2.24,11.9-11.9a1.52,1.52,0,0,0,.46-1.12,1.49,1.49,0,0,0-.46-1.11" transform="translate(-19.81 -34.37)"/><rect class="cls-6" x="181.85" y="79.99" width="106.27" height="12.26"/><path class="cls-7" d="M202.36,52.3h65.4a20.37,20.37,0,0,1,20.37,20.37V80a0,0,0,0,1,0,0H181.85a0,0,0,0,1,0,0V72.8a20.5,20.5,0,0,1,20.5-20.5Z"/><circle class="cls-8" cx="234.99" cy="52.3" r="12.86"/></svg>